<?xml version="1.0" encoding="utf-8"?>
<!-- Generator: Adobe Illustrator 22.0.1, SVG Export Plug-In . SVG Version: 6.00 Build 0)  -->
<svg version="1.2" baseProfile="tiny" xmlns="http://www.w3.org/2000/svg" xmlns:xlink="http://www.w3.org/1999/xlink" x="0px"
	 y="0px" viewBox="0 0 1319.3 824.8" xml:space="preserve">
<g id="Camada_2">
	<image width="377" height="396" xlink:href="1DA944F2.png"  transform="matrix(1 0 0 1 485.0435 428.9668)">
	</image>
	<image width="357" height="342" xlink:href="1DA944F6.png"  transform="matrix(1 0 0 1 495.0435 455.9668)">
	</image>
	<image width="357" height="342" xlink:href="1DA944F1.png"  transform="matrix(1 0 0 1 495.0435 455.9668)">
	</image>
	<path fill="#F8F9FC" d="M767.3,497.2c-5.8-10.1-16.6-16.3-28.2-16.3H608.1c-11.6,0-22.4,6.2-28.2,16.3l-65.5,113.4
		c-5.8,10.1-5.8,22.5,0,32.6l65.5,113.4c5.8,10.1,16.6,16.3,28.2,16.3h130.9c11.6,0,22.4-6.2,28.2-16.3l65.5-113.4
		c5.8-10.1,5.8-22.5,0-32.6L767.3,497.2z"/>
</g>
<g id="Camada_1">
	<g>
		<path fill="none" stroke="#00ACAF" stroke-width="2" stroke-miterlimit="10" d="M750.2,565.7h-8.1v-3.8c0,0,5.7-2.5,8.1-4.8h7.6
			v25.6l5.6,2.7v3.8h-19.8v-3.8l6.6-2.7V565.7z"/>
		<g>
			<path fill="none" stroke="#00ACAF" stroke-width="2" stroke-miterlimit="10" d="M740.4,607c0,0-5.7,2.8-10.4,0.8
				c-4.7-2-6.6-8-6.6-8s3.1-1.5,6.6-1.5c1.3,0,2.6,0.2,3.8,0.7C738.5,601,740.4,607,740.4,607z"/>
			<path fill="none" stroke="#00ACAF" stroke-width="2" stroke-miterlimit="10" d="M721.7,594.8c-2.8-2.9-3.6-7.1-3.6-7.1
				s6-2.1,10.4,0.5c2.4,1.4,3.9,3.8,4.7,5.7"/>
			<path fill="none" stroke="#00ACAF" stroke-width="2" stroke-miterlimit="10" d="M716.3,582.7c-2-3.5-2.1-8.4-2.1-8.4
				s6.3-0.5,9.9,3.1c1.5,1.4,2.3,3.3,2.7,5"/>
			<path fill="none" stroke="#00ACAF" stroke-width="2" stroke-miterlimit="10" d="M718.1,569.7c-0.7-3-0.4-6.3-0.4-6.3
				s6.3,0,9.7,3.9c2.4,2.8,2.6,6.9,2.5,8.9"/>
			
				<line fill="none" stroke="#00ACAF" stroke-width="2" stroke-linecap="round" stroke-miterlimit="10" x1="740.5" y1="607" x2="746.6" y2="609.9"/>
			<path fill="none" stroke="#00ACAF" stroke-width="2" stroke-miterlimit="10" d="M731.6,564.4c0.4-2,0.5-4.5-0.4-6.8
				c-2-4.7-8-6.6-8-6.6s-2.1,4.4-1.3,8.6"/>
		</g>
		<g>
			<path fill="none" stroke="#00ACAF" stroke-width="2" stroke-miterlimit="10" d="M770.1,599c1.2-0.5,2.5-0.7,3.8-0.7
				c3.5,0,6.6,1.5,6.6,1.5s-1.9,6-6.6,8c-4.7,2-10.4-0.8-10.4-0.8S765.4,601,770.1,599z"/>
			<path fill="none" stroke="#00ACAF" stroke-width="2" stroke-miterlimit="10" d="M770.7,593.8c0.8-2,2.3-4.4,4.7-5.7
				c4.4-2.5,10.4-0.5,10.4-0.5s-0.8,4.2-3.6,7.1"/>
			<path fill="none" stroke="#00ACAF" stroke-width="2" stroke-miterlimit="10" d="M777,582.4c0.4-1.7,1.3-3.6,2.7-5
				c3.6-3.6,9.9-3.1,9.9-3.1s-0.1,4.9-2.1,8.4"/>
			<path fill="none" stroke="#00ACAF" stroke-width="2" stroke-miterlimit="10" d="M773.9,576.3c-0.1-2,0.1-6.1,2.5-8.9
				c3.3-3.9,9.7-3.9,9.7-3.9s0.4,3.2-0.4,6.3"/>
			<line fill="none" stroke="#00ACAF" stroke-width="2" stroke-miterlimit="10" x1="757.3" y1="609.9" x2="763.3" y2="607"/>
			<path fill="none" stroke="#00ACAF" stroke-width="2" stroke-miterlimit="10" d="M782,559.6c0.8-4.2-1.3-8.6-1.3-8.6s-6,1.9-8,6.6
				c-1,2.3-0.8,4.8-0.4,6.8"/>
		</g>
	</g>
	<g>
		<image width="174" height="101" xlink:href="1DA944F3.png"  transform="matrix(1 0 0 1 627.0435 624.9668)">
		</image>
		<g>
			<g>
				<g>
					<g>
						<polygon fill="#013146" points="642.2,729 627.7,720.6 627.4,622.1 641.9,630.5 						"/>
					</g>
					<g>
						<polygon fill="#013E59" points="641.9,630.5 627.4,622.1 642.1,613.6 656.5,622 						"/>
					</g>
					<g>
						<polygon fill="#025479" points="656.5,622 656.8,720.5 642.2,729 641.9,630.5 						"/>
					</g>
				</g>
			</g>
			<g>
				<g>
					<g>
						<polygon fill="#C74536" points="606.6,626.3 704.7,569.4 704.5,628.2 606.5,685.2 						"/>
					</g>
				</g>
				<g>
					<image width="124" height="63" xlink:href="1DA944F0.png"  transform="matrix(1 0 0 1 546.0435 503.9668)">
					</image>
					<image width="134" height="118" xlink:href="1DA944FE.png"  transform="matrix(1 0 0 1 571.0435 508.9668)">
					</image>
					<path fill="#ED7F72" d="M571.8,566c-19.3-11.1-35-2.2-35.1,20l-0.2,58.8l69.9,40.4l0.2-58.8C606.7,604.1,591.1,577.1,571.8,566
						z"/>
					<path fill="#6B1715" d="M541.2,642.1l0.2-56.2c0-12.6,5.5-20.2,14.7-20.2c4,0,8.6,1.4,13.4,4.2c18,10.4,32.6,35.6,32.5,56.3
						l-0.1,50.8L541.2,642.1z"/>
				</g>
			</g>
			<g>
				<g>
					<g>
						<polygon fill="#80342B" points="611.9,630.2 610.3,629.3 610.2,603.8 611.8,604.8 						"/>
					</g>
					<g>
						<polygon fill="#80342B" points="616,602 614.4,601.1 614.4,595.7 616,596.6 						"/>
					</g>
					<g>
						<polygon fill="#80342B" points="611.8,604.8 610.2,603.8 610.2,598.1 611.8,599 						"/>
					</g>
					<g>
						<polygon fill="#A34236" points="611.8,599 610.2,598.1 614.4,595.7 616,596.6 						"/>
					</g>
					<g>
						<polygon fill="#80342B" points="611.8,604.8 610.2,603.8 610.2,594.8 611.8,595.7 						"/>
					</g>
					<g>
						<polygon fill="#A14136" points="611.8,595.7 610.2,594.8 622,588.9 623.6,589.8 						"/>
					</g>
					<polygon fill="#ED7F72" points="623.6,597 623.6,589.8 611.8,595.7 611.8,599 611.8,599 611.8,604.8 611.9,630.2 616.1,627.8 
						616,602 					"/>
				</g>
			</g>
			<g>
				<g>
					<g>
						<g>
							<polygon fill="#AB3529" points="606.5,685.1 606.4,686.6 555.6,716.1 555.6,714.6 							"/>
						</g>
						<g>
							<g>
								<path fill="#AB3529" d="M555.6,714.6l0,1.5c-3.7,2.1-7.8,3.9-12.3,5.2l0-1.5C547.8,718.5,551.9,716.8,555.6,714.6
									L555.6,714.6z"/>
								<path fill="#AB3529" d="M543.4,719.8l0,1.5c-4.6,1.4-9.6,2.3-14.6,2.8l0-1.5C533.8,722.2,538.8,721.2,543.4,719.8
									L543.4,719.8z"/>
								<path fill="#AB3529" d="M528.8,722.6l0,1.5c-6.4,0.6-12.9,0.5-19.2-0.4l0-1.5C515.8,723.1,522.4,723.2,528.8,722.6
									L528.8,722.6z"/>
								<path fill="#AB3529" d="M509.5,722.2l0,1.5c-8.5-1.2-16.6-3.7-23.3-7.5l0-1.5C492.9,718.6,501,721,509.5,722.2L509.5,722.2z
									"/>
								<path fill="#AB3529" d="M486.2,714.7l0,1.5c0,0-0.1-0.1-0.1-0.1c-4.7-2.7-8.2-5.8-10.6-9.1l0-1.5c2.4,3.3,6,6.4,10.6,9.1
									C486.1,714.7,486.2,714.7,486.2,714.7L486.2,714.7z"/>
								<path fill="#AB3529" d="M475.4,705.5l0,1.5c-2-2.8-3.3-5.7-3.7-8.7l0-1.5C472.2,699.8,473.4,702.7,475.4,705.5L475.4,705.5z
									"/>
								<path fill="#AB3529" d="M471.7,696.8l0,1.5c-0.1-0.8-0.2-1.7-0.2-2.5l0-1.5C471.5,695.2,471.6,696,471.7,696.8L471.7,696.8z
									"/>
							</g>
						</g>
						<path fill="#C74536" d="M606.5,685.1l-69.8-40.3l-50.8,29.5c-19.1,11.1-19,29.2,0.2,40.3c19.3,11.1,50.4,11.1,69.6,0l0,0
							L606.5,685.1z"/>
					</g>
				</g>
				<path fill="#ED604F" d="M606.5,685.1l-69.8-40.3l-50.8,29.5c-19.1,11.1-19,29.2,0.2,40.3c19.3,11.1,50.4,11.1,69.6,0l0,0
					L606.5,685.1z"/>
				<path fill="#AB3529" d="M520.9,718.5c-12.4,0-23.9-2.8-32.6-7.7c-7.9-4.6-12.3-10.4-12.3-16.3c0-5.9,4.3-11.7,12.1-16.2
					l48.6-28.2l60.8,35.1l-44.1,25.6C544.8,715.7,533.3,718.5,520.9,718.5L520.9,718.5z"/>
			</g>
			<g>
				<g>
					<g>
						<polygon fill="#D1DCE6" points="577.9,587.8 547.6,636.8 578.1,648 578,617.9 						"/>
					</g>
					<g>
						<polygon fill="#946A10" points="577.9,587.8 572.4,584.6 542,633.6 547.6,636.8 						"/>
					</g>
					<g>
						<polygon fill="#ABBECF" points="547.6,636.8 577.9,587.8 545.4,635.9 						"/>
					</g>
					<g>
						<polygon fill="#ABBECF" points="530.8,645.2 529.4,647.3 538.5,651.5 547.6,636.8 545.4,635.9 537.7,647.7 						"/>
					</g>
					<g>
						<polygon fill="#D1DCE6" points="529.4,647.3 498.9,633.5 498.9,663.6 499,693.6 						"/>
					</g>
					<g>
						<polygon fill="#DFE4E8" points="529.4,647.3 499,693.6 538.6,670.8 578.1,648 547.6,636.8 538.5,651.5 						"/>
					</g>
					<g>
						<polygon fill="#DFE4E8" points="577.9,587.8 572.4,584.6 532.8,607.4 538.4,610.6 						"/>
					</g>
					<g>
						<polygon fill="#FEFEFF" points="498.9,663.6 493.4,660.3 493.5,690.4 499,693.6 						"/>
					</g>
					<g>
						<polygon fill="#ABBECF" points="530.8,645.2 498.9,633.5 529.4,647.3 						"/>
					</g>
					<g>
						<polygon fill="#FEFEFF" points="498.9,633.5 493.3,630.2 493.4,660.3 498.9,663.6 						"/>
					</g>
					<g>
						<polygon fill="#DFE4E8" points="538.4,610.6 532.8,607.4 493.3,630.2 498.9,633.5 						"/>
					</g>
					<g>
						<polygon fill="#FEFEFF" points="498.3,633.5 530.2,645.2 537.9,648 545.6,636.3 577.9,587.8 537.8,610.6 						"/>
					</g>
				</g>
			</g>
		</g>
	</g>
</g>
<g id="Camada_3">
	<g>
		<g>
			
				<path fill="none" stroke="#394553" stroke-width="2.5" stroke-linecap="round" stroke-linejoin="round" stroke-miterlimit="10" d="
				M137.1,12.7c0,0-32.9-24.4-72.8-1.8c0,0-22.2,9.6-17.5,40.4c0,0,0.9,8.6-1.8,12.6L30.4,81.1c0,0-2,5.1,3.9,5.6l9,1.8
				c0,0,3.7,7.3,4.1,12.9c0.4,5.6-0.9,12.6-0.9,12.6s-3.2,8.4,1.8,12.2c1,0.2,4.7,4.4,30.9-1.2c0,0,2.5,1.2,4.1,14.9"/>
			
				<line fill="none" stroke="#394553" stroke-width="2.5" stroke-linecap="round" stroke-linejoin="round" stroke-miterlimit="10" x1="48.5" y1="101.9" x2="59.8" y2="102.1"/>
		</g>
		<g>
			<g>
				<path fill="none" stroke="#394553" stroke-width="2.5" stroke-linecap="round" stroke-miterlimit="10" d="M170.2,124V116
					c0-1.6-1.6-3.1-3.2-3.1h-27.4"/>
			</g>
			<g>
				
					<path fill="none" stroke="#394553" stroke-width="2.5" stroke-linecap="round" stroke-linejoin="round" stroke-miterlimit="10" d="
					M136,124.8h38.3c1.6,0,3.2,1.5,3.2,3.1V139h-77.1v-11.1c0-1.6,1.7-3.1,3.2-3.1h4.1V116c0-1.6,1.6-3.1,3.2-3.1h11.7"/>
			</g>
		</g>
		<g>
			<polyline fill="none" stroke="#394553" stroke-width="2.5" stroke-linecap="square" stroke-miterlimit="10" points="133.3,37.4 
				133.3,26.2 144.8,26.2 144.8,37.4 156.4,37.4 156.4,26.2 167.8,26.2 167.8,47.3 156.7,53.5 163.7,111.9 			"/>
			<polyline fill="none" stroke="#394553" stroke-width="2.5" stroke-linecap="square" stroke-miterlimit="10" points="114.3,111.9 
				121.3,53.5 110.2,47.3 110.2,26.2 121.6,26.2 121.6,37.4 			"/>
		</g>
		<line fill="none" stroke="#394553" stroke-width="2.5" stroke-miterlimit="10" x1="155.3" y1="54.8" x2="131.9" y2="54.8"/>
	</g>
	<g>
		<g>
			
				<line fill="none" stroke="#394553" stroke-width="2.5" stroke-linecap="round" stroke-miterlimit="10" x1="481.5" y1="68" x2="481.5" y2="86.2"/>
			<polyline fill="none" stroke="#394553" stroke-width="2.5" stroke-linecap="round" stroke-miterlimit="10" points="496.4,96.8 
				481.5,86.2 466.7,96.8 			"/>
		</g>
		<g>
			<path fill="none" stroke="#394553" stroke-width="2.5" stroke-linejoin="round" stroke-miterlimit="10" d="M455.3,64.4V53.7
				c0-9.4,6.8-12.8,15.5-12.8l10.7,11.8l9.9-11.8c8.7,0,16.3,3.5,16.3,12.8v10.7"/>
			<path fill="none" stroke="#394553" stroke-width="2.5" stroke-miterlimit="10" d="M493.7,18.1c0,6.8-5.5,12.3-12.1,12.3
				c-6.7,0-12.1-5.5-12.1-12.3v-4.6c0-6.8,5.5-12.3,12.1-12.3c6.7,0,12.1,5.5,12.1,12.3V18.1z"/>
		</g>
		<g>
			<g>
				<path fill="none" stroke="#394553" stroke-width="2.5" stroke-linejoin="round" stroke-miterlimit="10" d="M500.8,148v-10.7
					c0-9.4,6.8-12.8,15.5-12.8l10.7,11.8l9.9-11.8c8.7,0,16.3,3.5,16.3,12.8V148"/>
				<path fill="none" stroke="#394553" stroke-width="2.5" stroke-miterlimit="10" d="M539.1,101.7c0,6.8-5.5,12.3-12.1,12.3
					c-6.7,0-12.1-5.5-12.1-12.3v-4.6c0-6.8,5.5-12.3,12.1-12.3c6.7,0,12.1,5.5,12.1,12.3V101.7z"/>
			</g>
			<g>
				<path fill="none" stroke="#394553" stroke-width="2.5" stroke-linejoin="round" stroke-miterlimit="10" d="M409.9,148v-10.7
					c0-9.4,6.8-12.8,15.5-12.8l10.7,11.8l9.9-11.8c8.7,0,16.3,3.5,16.3,12.8V148"/>
				<path fill="none" stroke="#394553" stroke-width="2.5" stroke-miterlimit="10" d="M448.2,101.7c0,6.8-5.5,12.3-12.1,12.3
					c-6.7,0-12.1-5.5-12.1-12.3v-4.6c0-6.8,5.5-12.3,12.1-12.3c6.7,0,12.1,5.5,12.1,12.3V101.7z"/>
			</g>
		</g>
	</g>
	<g>
		<g>
			<g>
				<polyline fill="none" stroke="#394553" stroke-width="2.5" stroke-miterlimit="10" points="801.5,65.4 808.8,71.2 819.6,57.6 
									"/>
				
					<line fill="none" stroke="#394553" stroke-width="2.5" stroke-linecap="round" stroke-miterlimit="10" x1="831.3" y1="67.4" x2="870.2" y2="67.4"/>
			</g>
			<g>
				<polyline fill="none" stroke="#394553" stroke-width="2.5" stroke-miterlimit="10" points="801.5,90.9 808.8,96.7 819.6,83.1 
									"/>
				
					<line fill="none" stroke="#394553" stroke-width="2.5" stroke-linecap="round" stroke-miterlimit="10" x1="831.3" y1="92.9" x2="852" y2="92.9"/>
			</g>
			<g>
				<polyline fill="none" stroke="#394553" stroke-width="2.5" stroke-miterlimit="10" points="801.5,116.4 808.8,122.2 
					819.6,108.6 				"/>
				
					<line fill="none" stroke="#394553" stroke-width="2.5" stroke-linecap="round" stroke-miterlimit="10" x1="831.3" y1="118.4" x2="845.8" y2="118.4"/>
			</g>
		</g>
		<g>
			<path fill="none" stroke="#394553" stroke-width="2.5" stroke-miterlimit="10" d="M889.4,47.7v-31c0-5.3-4.3-9.6-9.6-9.6h-67.3
				l-26.7,23.2v105.4c0,5.3,4.3,9.6,9.6,9.6h84.5c5.3,0,9.6-4.3,9.6-9.6v-14.8"/>
			<polyline fill="none" stroke="#394553" stroke-width="2.5" stroke-miterlimit="10" points="821.1,9 821.1,38.4 803.1,38.4 			"/>
		</g>
		<g>
			<g>
				<g>
					<path fill="none" stroke="#394553" stroke-width="2.5" stroke-linejoin="round" stroke-miterlimit="10" d="M889.9,108.7
						l-31.5,9.5l10.9-31.6l40.9-40.9c2.3-2.3,6.6-1.6,9.8,1.5l10,10c3.1,3.1,3.8,7.5,1.5,9.8L889.9,108.7z"/>
					
						<line fill="none" stroke="#394553" stroke-width="2.5" stroke-linejoin="round" stroke-miterlimit="10" x1="889.7" y1="104.9" x2="872" y2="87.2"/>
					
						<line fill="none" stroke="#394553" stroke-width="2.5" stroke-linejoin="round" stroke-miterlimit="10" x1="867.9" y1="114.8" x2="862.2" y2="109"/>
				</g>
				
					<line fill="none" stroke="#394553" stroke-width="2.5" stroke-linejoin="round" stroke-miterlimit="10" x1="881.4" y1="96.3" x2="904.6" y2="73.2"/>
			</g>
			
				<line fill="none" stroke="#394553" stroke-width="2.5" stroke-linejoin="round" stroke-miterlimit="10" x1="901.8" y1="55" x2="922.2" y2="75.4"/>
		</g>
	</g>
	<g>
		<path fill="none" stroke="#394553" stroke-width="2.5" stroke-linejoin="round" stroke-miterlimit="10" d="M1275.8,81
			c-5.1,28.2-29.7,49.6-59.4,49.6c-33.3,0-60.4-27-60.4-60.4s27-60.4,60.4-60.4c29.6,0,54.2,21.3,59.4,49.4"/>
		<path fill="none" stroke="#394553" stroke-width="2.5" stroke-linejoin="round" stroke-miterlimit="10" d="M1251.8,80.9
			c-4.6,15-18.5,26-35.1,26c-20.2,0-36.7-16.4-36.7-36.7s16.4-36.7,36.7-36.7c16.4,0,30.3,10.8,35,25.7"/>
		<path fill="none" stroke="#394553" stroke-width="2.5" stroke-linejoin="round" stroke-miterlimit="10" d="M1227.3,80.8
			c-2.7,2.7-6.4,4.4-10.6,4.4c-8.3,0-14.9-6.7-14.9-14.9c0-8.3,6.7-14.9,14.9-14.9c4,0,7.6,1.5,10.2,4.1"/>
		
			<line fill="none" stroke="#394553" stroke-width="2.5" stroke-linecap="round" stroke-linejoin="round" stroke-miterlimit="10" x1="1217" y1="70" x2="1306.9" y2="70"/>
		
			<line fill="none" stroke="#394553" stroke-width="2.5" stroke-linecap="round" stroke-linejoin="round" stroke-miterlimit="10" x1="1306.9" y1="70" x2="1318" y2="56.2"/>
		
			<line fill="none" stroke="#394553" stroke-width="2.5" stroke-linecap="round" stroke-linejoin="round" stroke-miterlimit="10" x1="1318" y1="83.9" x2="1306.9" y2="70"/>
		
			<line fill="none" stroke="#394553" stroke-width="2.5" stroke-linecap="round" stroke-linejoin="round" stroke-miterlimit="10" x1="1285.9" y1="70" x2="1297.1" y2="56.2"/>
		
			<line fill="none" stroke="#394553" stroke-width="2.5" stroke-linecap="round" stroke-linejoin="round" stroke-miterlimit="10" x1="1297.1" y1="83.9" x2="1285.9" y2="70"/>
		<g>
			<g>
				<polyline fill="none" stroke="#394553" stroke-width="2.5" stroke-miterlimit="10" points="1189.7,124.4 1178.8,142.6 
					1163.5,142.6 1173.2,126.6 				"/>
			</g>
			<g>
				<polyline fill="none" stroke="#394553" stroke-width="2.5" stroke-miterlimit="10" points="1254.5,118 1269.3,142.6 
					1254.1,142.6 1249,133.9 				"/>
			</g>
		</g>
	</g>
	<image width="63" height="71" xlink:href="1DA944F5.png"  transform="matrix(1 0 0 1 271.0435 43.9668)">
	</image>
	<image width="63" height="71" xlink:href="1DA944F7.png"  transform="matrix(1 0 0 1 638.0435 43.9668)">
	</image>
	<image width="63" height="71" xlink:href="1DA944F4.png"  transform="matrix(1 0 0 1 1014.0435 43.9668)">
	</image>
	<path fill="none" stroke="#394553" stroke-width="2" stroke-miterlimit="10" d="M480.5,238.5c0,0-8,68.4,75,71.8s111,37.6,111,95.7
		"/>
	<path fill="none" stroke="#394553" stroke-width="2" stroke-miterlimit="10" d="M852.3,238.5c0,0,8,68.4-75,71.8
		s-111,37.6-111,95.7"/>
	<path fill="none" stroke="#394553" stroke-width="2" stroke-miterlimit="10" d="M116.1,239c0,0-22.5,98.5,253.8,98.5
		c144.4,0,296.7-6.5,296.7,68.5"/>
	<path fill="none" stroke="#394553" stroke-width="2" stroke-miterlimit="10" d="M666.1,406c0-75,152.3-68.5,296.7-68.5
		c276.3,0,253.8-98.5,253.8-98.5"/>
	<polygon fill="#FFFFFF" points="119.1,231 111,231 107,238 111,245 119.1,245 123.1,238 	"/>
	<polygon fill="#FFFFFF" points="484.1,231 476,231 472,238 476,245 484.1,245 488.1,238 	"/>
	<polygon fill="#FFFFFF" points="856.1,231 848,231 844,238 848,245 856.1,245 860.1,238 	"/>
	<polygon fill="#FFFFFF" points="670.1,399 662,399 658,406 662,413 670.1,413 674.1,406 	"/>
	<polygon fill="#FFFFFF" points="1220.1,231 1212,231 1208,238 1212,245 1220.1,245 1224.1,238 	"/>
	<text transform="matrix(1 0 0 1 0 200.6006)" fill="#FFFFFF" font-family="'Kanit-Regular'" font-size="39px">E</text>
	<text transform="matrix(1 0 0 1 23.3994 200.6006)" fill="#FFFFFF" font-family="'Kanit-Regular'" font-size="39px">S</text>
	<text transform="matrix(1 0 0 1 46.0195 200.6006)" fill="#FFFFFF" font-family="'Kanit-Regular'" font-size="39px">T</text>
	<text transform="matrix(1 0 0 1 70.1211 200.6006)" fill="#FFFFFF" font-family="'Kanit-Regular'" font-size="39px">R</text>
	<text transform="matrix(1 0 0 1 94.106 200.6006)" fill="#FFFFFF" font-family="'Kanit-Regular'" font-size="39px">A</text>
	<text transform="matrix(1 0 0 1 118.4805 200.6006)" fill="#FFFFFF" font-family="'Kanit-Regular'" font-size="39px">T</text>
	<text transform="matrix(1 0 0 1 142.5825 200.6006)" fill="#FFFFFF" font-family="'Kanit-Regular'" font-size="39px">É</text>
	<text transform="matrix(1 0 0 1 165.9819 200.6006)" fill="#FFFFFF" font-family="'Kanit-Regular'" font-size="39px">G</text>
	<text transform="matrix(1 0 0 1 192.9307 200.6006)" fill="#FFFFFF" font-family="'Kanit-Regular'" font-size="39px">I</text>
	<text transform="matrix(1 0 0 1 204.0449 200.6006)" fill="#FFFFFF" font-family="'Kanit-Regular'" font-size="39px">A</text>
	<text transform="matrix(1 0 0 1 305.186 200.6006)" fill="#FFFFFF" font-family="'Kanit-Regular'" font-size="39px">R</text>
	<text transform="matrix(1 0 0 1 330.9253 200.6006)" fill="#FFFFFF" font-family="'Kanit-Regular'" font-size="39px">E</text>
	<text transform="matrix(1 0 0 1 354.3252 200.6006)" fill="#FFFFFF" font-family="'Kanit-Regular'" font-size="39px">L</text>
	<text transform="matrix(1 0 0 1 376.1646 200.6006)" fill="#FFFFFF" font-family="'Kanit-Regular'" font-size="39px">A</text>
	<text transform="matrix(1 0 0 1 403.27 200.6006)" fill="#FFFFFF" font-family="'Kanit-Regular'" font-size="39px">C</text>
	<text transform="matrix(1 0 0 1 428.5024 200.6006)" fill="#FFFFFF" font-family="'Kanit-Regular'" font-size="39px">I</text>
	<text transform="matrix(1 0 0 1 439.6167 200.6006)" fill="#FFFFFF" font-family="'Kanit-Regular'" font-size="39px">O</text>
	<text transform="matrix(1 0 0 1 468.7495 200.6006)" fill="#FFFFFF" font-family="'Kanit-Regular'" font-size="39px">N</text>
	<text transform="matrix(1 0 0 1 496.7119 200.6006)" fill="#FFFFFF" font-family="'Kanit-Regular'" font-size="39px">A</text>
	<text transform="matrix(1 0 0 1 524.9873 200.6006)" fill="#FFFFFF" font-family="'Kanit-Regular'" font-size="39px">M</text>
	<text transform="matrix(1 0 0 1 556.46 200.6006)" fill="#FFFFFF" font-family="'Kanit-Regular'" font-size="39px">E</text>
	<text transform="matrix(1 0 0 1 579.8594 200.6006)" fill="#FFFFFF" font-family="'Kanit-Regular'" font-size="39px">N</text>
	<text transform="matrix(1 0 0 1 607.8218 200.6006)" fill="#FFFFFF" font-family="'Kanit-Regular'" font-size="39px">T</text>
	<text transform="matrix(1 0 0 1 629.7788 200.6006)" fill="#FFFFFF" font-family="'Kanit-Regular'" font-size="39px">O</text>
	<text transform="matrix(1 0 0 1 1126.7261 200.6006)" fill="#FFFFFF" font-family="'Kanit-Regular'" font-size="39px">E</text>
	<text transform="matrix(1 0 0 1 1150.1255 200.6006)" fill="#FFFFFF" font-family="'Kanit-Regular'" font-size="39px">S</text>
	<text transform="matrix(1 0 0 1 1172.7456 200.6006)" fill="#FFFFFF" font-family="'Kanit-Regular'" font-size="39px">C</text>
	<text transform="matrix(1 0 0 1 1196.2231 200.6006)" fill="#FFFFFF" font-family="'Kanit-Regular'" font-size="39px">O</text>
	<text transform="matrix(1 0 0 1 1225.356 200.6006)" fill="#FFFFFF" font-family="'Kanit-Regular'" font-size="39px">L</text>
	<text transform="matrix(1 0 0 1 1247.7808 200.6006)" fill="#FFFFFF" font-family="'Kanit-Regular'" font-size="39px">H</text>
	<text transform="matrix(1 0 0 1 1275.2358 200.6006)" fill="#FFFFFF" font-family="'Kanit-Regular'" font-size="39px">A</text>
	<text transform="matrix(1 0 0 1 747.543 197.6006)" fill="#FFFFFF" font-family="'Kanit-Regular'" font-size="39px">C</text>
	<text transform="matrix(1 0 0 1 771.0205 197.6006)" fill="#FFFFFF" font-family="'Kanit-Regular'" font-size="39px">O</text>
	<text transform="matrix(1 0 0 1 800.1533 197.6006)" fill="#FFFFFF" font-family="'Kanit-Regular'" font-size="39px">N</text>
	<text transform="matrix(1 0 0 1 828.1157 197.6006)" fill="#FFFFFF" font-family="'Kanit-Regular'" font-size="39px">T</text>
	<text transform="matrix(1 0 0 1 852.2173 197.6006)" fill="#FFFFFF" font-family="'Kanit-Regular'" font-size="39px">E</text>
	<text transform="matrix(1 0 0 1 875.6167 197.6006)" fill="#FFFFFF" font-family="'Kanit-Regular'" font-size="39px">Ú</text>
	<text transform="matrix(1 0 0 1 903.853 197.6006)" fill="#FFFFFF" font-family="'Kanit-Regular'" font-size="39px">D</text>
	<text transform="matrix(1 0 0 1 931.1138 197.6006)" fill="#FFFFFF" font-family="'Kanit-Regular'" font-size="39px">O</text>
</g>
</svg>
